M48
;Layer_Color=9474304
;FILE_FORMAT=4:4
METRIC,LZ
;TYPE=PLATED
T01F00S00C0.3000
T03F00S00C1.0000
T04F00S00C1.1000
T05F00S00C1.5000
T06F00S00C3.2000
%
T01
X000515Y00075
X00062Y00105
X00083Y0022
X00082093Y00239624
X00058623Y00239852
X00044Y00248
X00024845Y00264058
X00092939Y00260071
X00100853Y00272
X00093929Y00288366
X0011825Y0026425
X00150952Y00280162
X00172441Y00274523
X00182423Y00290195
X00190957Y00252552
X00167056Y00238912
X00155372Y00239243
X00151Y00218
X00133452Y00204013
X00132867Y0018255
X00149885Y00155194
X00168Y00144
X00175Y00136
X00188468Y00135001
X00253Y00149
X0023775Y00177851
X00238303Y00191186
X002381Y00227792
X003Y00226
X00302666Y00177749
X00328524Y0017813
X00304Y00082
X00301Y00057
X00318Y00067
X00367601Y00067087
X00386Y00088775
X00268Y00059
X00262Y00113
X00112Y00212
X00085Y00328
X00097388Y00351899
X0008909Y0039009
X00178Y00396
X00213Y00384
X00228Y00373
X00225654Y00352019
X00298Y00348
X0031
X00335Y0034
X00386893Y00254635
X00483464Y00262915
X00482Y00164
X00483Y0011
X00512Y00105
X0045075Y00096672
X00459Y0006
X00482016Y00048133
X00569Y0008
X00582117Y0017968
X006589Y00171399
X00679069Y0016703
X00677716Y00179383
X00676072Y0019812
X0066553Y00216484
X00651Y00218
X00661388Y00128854
X00568Y0034
X00556Y00374
X00546Y00384
X00564Y00396
X00574Y00397
X00633
X00676
X00618642Y00449885
X0032Y00461
X00308Y0043
X00307Y00415
X0027875Y00424967
X00268Y0045
X00226992Y00452018
X00220426Y00467574
X00216383Y00484556
X00197Y00451
X0018Y00452
X00176Y00442
X00169037Y00418998
X00204876Y00438127
X00106Y00459
X00095326Y00397967
X00011Y00423
X00009Y00505
X00069Y00519
X003Y00523
X00303Y00499
T03
X002045Y000105
X002495
Y000755
X002045
X00610386Y00263153
Y00308153
X00675386
Y00263153
T04
X001162Y00088
X001416
X00167
X0029045Y0012573
X0031585
X0034125
X0036665
X0039205
Y0020193
X0036665
X0034125
X0031585
X0029045
X002794Y000254
X003048
X003302
X003556
X00381
X00146Y003762
X000762Y0038608
X000508
X000254
Y00342
Y003166
X000508
Y00342
X0041745Y0020193
X0044285
X0046825
X0049365
X0051905
X0054445
X0056985
X0059525
X0062065
Y0012573
X0059525
X0056985
X0054445
X0051905
X0049365
X0046825
X0044285
X0041745
X004064Y000254
X004318
X004572
X00508
X005334
X005588
X005842
X006096
X00635
X00662Y004182
Y004436
Y00469
X00635Y00508
X006096
X005842
X005588
X005334
X00508
X004826
X004572
X0041656
X0039116
X0036576
X0034036
X0031496
X0028956
X0026416
X0023876
X0021336
X0018796
X00146Y004524
Y00427
Y004016
X000762Y0041148
X000508
X000254
X00020778Y00469349
X00046178
X00071578
Y00494749
X00046178
X00020778
T05
X00021Y00023
Y00138
T06
X001397Y000254
X006604Y000762
Y003556
X00146Y00518
M30
