G04*
G04 #@! TF.GenerationSoftware,Altium Limited,Altium Designer,24.5.2 (23)*
G04*
G04 Layer_Color=8388736*
%FSLAX42Y42*%
%MOMM*%
G71*
G04*
G04 #@! TF.SameCoordinates,800EA35B-6491-4ADE-9D72-18F2112E8D14*
G04*
G04*
G04 #@! TF.FilePolarity,Positive*
G04*
G01*
G75*
%ADD12C,0.25*%
%ADD71C,0.40*%
%ADD73C,1.00*%
%ADD87C,1.06*%
%ADD88C,0.15*%
D12*
X8100Y762D02*
X8151Y610D01*
X8049D02*
X8100Y762D01*
X8049Y152D02*
X8100Y0D01*
X8151Y152D01*
X8100Y381D02*
Y762D01*
Y0D02*
Y381D01*
X7009Y762D02*
X8125D01*
X8075Y0D02*
X8700D01*
X8600Y1380D02*
X8651Y1228D01*
X8549D02*
X8600Y1380D01*
X8549Y152D02*
X8600Y0D01*
X8651Y152D01*
X8600Y690D02*
Y1380D01*
Y0D02*
Y690D01*
X445Y1380D02*
X8625D01*
X8575Y0D02*
X8900D01*
X9100Y2019D02*
X9151Y1867D01*
X9049D02*
X9100Y2019D01*
X9049Y152D02*
X9100Y0D01*
X9151Y152D01*
X9100Y1429D02*
Y2019D01*
Y0D02*
Y509D01*
X6342Y2019D02*
X9125D01*
X9100Y-25D02*
Y25D01*
X9400Y3556D02*
X9451Y3404D01*
X9349D02*
X9400Y3556D01*
X9349Y152D02*
X9400Y0D01*
X9451Y152D01*
X9400Y2260D02*
Y3556D01*
Y0D02*
Y1214D01*
X7009Y3556D02*
X9425D01*
X9400Y-25D02*
Y25D01*
X9600Y4524D02*
X9651Y4372D01*
X9549D02*
X9600Y4524D01*
X9549Y152D02*
X9600Y0D01*
X9651Y152D01*
X9600Y2719D02*
Y4524D01*
Y0D02*
Y1724D01*
X1595Y4524D02*
X9625D01*
X9575Y0D02*
X9700D01*
X9900Y4690D02*
X9951Y4538D01*
X9849D02*
X9900Y4690D01*
X9849Y152D02*
X9900Y0D01*
X9951Y152D01*
X9900Y2827D02*
Y4690D01*
Y0D02*
Y1781D01*
X6755Y4690D02*
X9925D01*
X9900Y-25D02*
Y25D01*
X1245Y6949D02*
X1397Y7000D01*
X1245Y7051D02*
X1397Y7000D01*
X0D02*
X152Y7051D01*
X0Y7000D02*
X152Y6949D01*
X699Y7000D02*
X1397D01*
X0D02*
X699D01*
X1397Y659D02*
Y7025D01*
X0Y6975D02*
Y7300D01*
X1308Y7349D02*
X1460Y7400D01*
X1308Y7451D02*
X1460Y7400D01*
X0D02*
X152Y7451D01*
X0Y7400D02*
X152Y7349D01*
X1149Y7400D02*
X1460D01*
X0D02*
X230D01*
X1460Y4659D02*
Y7425D01*
X0Y7375D02*
Y7900D01*
X2642Y8049D02*
X2794Y8100D01*
X2642Y8151D02*
X2794Y8100D01*
X0D02*
X152Y8151D01*
X0Y8100D02*
X152Y8049D01*
X1867Y8100D02*
X2794D01*
X0D02*
X846D01*
X2794Y389D02*
Y8125D01*
X0Y8075D02*
Y8125D01*
X6054Y8849D02*
X6206Y8900D01*
X6054Y8951D02*
X6206Y8900D01*
X0D02*
X152Y8951D01*
X0Y8900D02*
X152Y8849D01*
X3646Y8900D02*
X6206D01*
X0D02*
X2575D01*
X6206Y2155D02*
Y8925D01*
X0Y8875D02*
Y9362D01*
X4013Y8297D02*
X4166Y8348D01*
X4013Y8398D02*
X4166Y8348D01*
X0D02*
X152Y8398D01*
X0Y8348D02*
X152Y8297D01*
X2565Y8348D02*
X4166D01*
X0D02*
X1519D01*
X4166Y5215D02*
Y8373D01*
X0Y8322D02*
Y8500D01*
X4928Y8597D02*
X5080Y8648D01*
X4928Y8698D02*
X5080Y8648D01*
X0D02*
X152Y8698D01*
X0Y8648D02*
X152Y8597D01*
X3035Y8648D02*
X5080D01*
X0D02*
X1964D01*
X5080Y389D02*
Y8673D01*
X0Y8622D02*
Y8800D01*
X6198Y9149D02*
X6350Y9200D01*
X6198Y9251D02*
X6350Y9200D01*
X0D02*
X152Y9251D01*
X0Y9200D02*
X152Y9149D01*
X3670Y9200D02*
X6350D01*
X0D02*
X2599D01*
X6350Y5215D02*
Y9225D01*
X0Y9175D02*
Y9225D01*
X6452Y9349D02*
X6604Y9400D01*
X6452Y9451D02*
X6604Y9400D01*
X0D02*
X152Y9451D01*
X0Y9400D02*
X152Y9349D01*
X3797Y9400D02*
X6604D01*
X0D02*
X2726D01*
X6604Y1167D02*
Y9425D01*
X0Y9375D02*
Y9700D01*
Y9800D02*
X152Y9851D01*
X0Y9800D02*
X152Y9749D01*
X6709D02*
X6861Y9800D01*
X6709Y9851D02*
X6861Y9800D01*
X0D02*
X2867D01*
X3913D02*
X6861D01*
X0Y5500D02*
Y9825D01*
X6861Y5418D02*
Y9825D01*
X10649Y162D02*
X10700Y10D01*
X10751Y162D01*
X10700Y5339D02*
X10751Y5187D01*
X10649D02*
X10700Y5339D01*
Y10D02*
Y2098D01*
Y3170D02*
Y5339D01*
X6950Y10D02*
X10725D01*
X6940Y5339D02*
X10725D01*
D71*
X7740Y7440D02*
Y7273D01*
X7773Y7240D01*
X7840D01*
X7873Y7273D01*
Y7440D01*
X7940Y7240D02*
Y7373D01*
X8040D01*
X8073Y7340D01*
Y7240D01*
X8140D02*
X8207D01*
X8173D01*
Y7373D01*
X8140D01*
X8340Y7407D02*
Y7373D01*
X8306D01*
X8373D01*
X8340D01*
Y7273D01*
X8373Y7240D01*
X8473D02*
X8573D01*
X8606Y7273D01*
X8573Y7307D01*
X8506D01*
X8473Y7340D01*
X8506Y7373D01*
X8606D01*
X8673D02*
X8706D01*
Y7340D01*
X8673D01*
Y7373D01*
Y7273D02*
X8706D01*
Y7240D01*
X8673D01*
Y7273D01*
X9040Y7240D02*
Y7373D01*
X9073D01*
X9106Y7340D01*
Y7240D01*
Y7340D01*
X9140Y7373D01*
X9173Y7340D01*
Y7240D01*
X9240D02*
Y7373D01*
X9273D01*
X9306Y7340D01*
Y7240D01*
Y7340D01*
X9339Y7373D01*
X9373Y7340D01*
Y7240D01*
X7873Y7007D02*
X7840Y7040D01*
X7773D01*
X7740Y7007D01*
Y6973D01*
X7773Y6940D01*
X7840D01*
X7873Y6907D01*
Y6873D01*
X7840Y6840D01*
X7773D01*
X7740Y6873D01*
X8073Y6973D02*
X7973D01*
X7940Y6940D01*
Y6873D01*
X7973Y6840D01*
X8073D01*
X8173Y6973D02*
X8240D01*
X8273Y6940D01*
Y6840D01*
X8173D01*
X8140Y6873D01*
X8173Y6907D01*
X8273D01*
X8340Y6840D02*
X8406D01*
X8373D01*
Y7040D01*
X8340D01*
X8606Y6840D02*
X8540D01*
X8506Y6873D01*
Y6940D01*
X8540Y6973D01*
X8606D01*
X8640Y6940D01*
Y6907D01*
X8506D01*
X8906Y6840D02*
X8973D01*
X8940D01*
Y7040D01*
X8906Y7007D01*
X9073Y6973D02*
X9106D01*
Y6940D01*
X9073D01*
Y6973D01*
Y6873D02*
X9106D01*
Y6840D01*
X9073D01*
Y6873D01*
X9240Y6840D02*
X9306D01*
X9273D01*
Y7040D01*
X9240Y7007D01*
X1640Y10707D02*
Y10907D01*
X1707Y10840D01*
X1773Y10907D01*
Y10707D01*
X1940D02*
X1873D01*
X1840Y10740D01*
Y10807D01*
X1873Y10840D01*
X1940D01*
X1973Y10807D01*
Y10773D01*
X1840D01*
X2173Y10840D02*
X2073D01*
X2040Y10807D01*
Y10740D01*
X2073Y10707D01*
X2173D01*
X2240Y10907D02*
Y10707D01*
Y10807D01*
X2273Y10840D01*
X2340D01*
X2373Y10807D01*
Y10707D01*
X2473Y10840D02*
X2540D01*
X2573Y10807D01*
Y10707D01*
X2473D01*
X2440Y10740D01*
X2473Y10773D01*
X2573D01*
X2640Y10707D02*
Y10840D01*
X2740D01*
X2773Y10807D01*
Y10707D01*
X2840D02*
X2906D01*
X2873D01*
Y10840D01*
X2840D01*
X3140D02*
X3040D01*
X3006Y10807D01*
Y10740D01*
X3040Y10707D01*
X3140D01*
X3239Y10840D02*
X3306D01*
X3339Y10807D01*
Y10707D01*
X3239D01*
X3206Y10740D01*
X3239Y10773D01*
X3339D01*
X3406Y10707D02*
X3473D01*
X3439D01*
Y10907D01*
X3406D01*
X3906D02*
Y10707D01*
X3806D01*
X3773Y10740D01*
Y10807D01*
X3806Y10840D01*
X3906D01*
X3973D02*
Y10707D01*
Y10773D01*
X4006Y10807D01*
X4039Y10840D01*
X4073D01*
X4206D02*
X4272D01*
X4306Y10807D01*
Y10707D01*
X4206D01*
X4173Y10740D01*
X4206Y10773D01*
X4306D01*
X4372Y10840D02*
Y10740D01*
X4406Y10707D01*
X4439Y10740D01*
X4472Y10707D01*
X4506Y10740D01*
Y10840D01*
X4572Y10707D02*
X4639D01*
X4606D01*
Y10840D01*
X4572D01*
X4739Y10707D02*
Y10840D01*
X4839D01*
X4872Y10807D01*
Y10707D01*
X5006Y10640D02*
X5039D01*
X5072Y10673D01*
Y10840D01*
X4972D01*
X4939Y10807D01*
Y10740D01*
X4972Y10707D01*
X5072D01*
X3040Y10340D02*
Y10207D01*
X3107Y10140D01*
X3173Y10207D01*
Y10340D01*
X3240Y10140D02*
X3307D01*
X3273D01*
Y10340D01*
X3240Y10307D01*
X3407Y10340D02*
X3473D01*
X3440D01*
Y10140D01*
X3407D01*
X3473D01*
X3573D02*
X3640D01*
X3606D01*
Y10340D01*
X3573Y10307D01*
D73*
X1513Y254D02*
G03*
X1513Y254I-116J0D01*
G01*
X6718Y741D02*
G03*
X6718Y741I-96J0D01*
G01*
X6715Y3556D02*
G03*
X6715Y3556I-111J0D01*
G01*
X1549Y5180D02*
G03*
X1549Y5180I-89J0D01*
G01*
D87*
X3Y0D02*
X6861D01*
X6871Y10D01*
Y5330D01*
X6861Y5339D02*
X6871Y5330D01*
X3Y5339D02*
X6861D01*
X0Y5336D02*
X3Y5339D01*
X0Y0D02*
Y5336D01*
D88*
X8339Y-79D02*
X8313Y-53D01*
Y-2D01*
X8339Y23D01*
X8364D01*
X8389Y-2D01*
Y-28D01*
Y-2D01*
X8415Y23D01*
X8440D01*
X8466Y-2D01*
Y-53D01*
X8440Y-79D01*
X8339Y74D02*
X8313Y99D01*
Y150D01*
X8339Y175D01*
X8440D01*
X8466Y150D01*
Y99D01*
X8440Y74D01*
X8339D01*
Y226D02*
X8313Y251D01*
Y302D01*
X8339Y328D01*
X8440D01*
X8466Y302D01*
Y251D01*
X8440Y226D01*
X8339D01*
X8466Y378D02*
X8440D01*
Y404D01*
X8466D01*
Y378D01*
X8339Y505D02*
X8313Y531D01*
Y582D01*
X8339Y607D01*
X8440D01*
X8466Y582D01*
Y531D01*
X8440Y505D01*
X8339D01*
Y658D02*
X8313Y683D01*
Y734D01*
X8339Y759D01*
X8440D01*
X8466Y734D01*
Y683D01*
X8440Y658D01*
X8339D01*
X8813Y357D02*
Y256D01*
X8889D01*
X8864Y307D01*
Y332D01*
X8889Y357D01*
X8940D01*
X8966Y332D01*
Y281D01*
X8940Y256D01*
X8966Y484D02*
X8813D01*
X8889Y408D01*
Y510D01*
X8839Y560D02*
X8813Y586D01*
Y637D01*
X8839Y662D01*
X8864D01*
X8889Y637D01*
Y611D01*
Y637D01*
X8915Y662D01*
X8940D01*
X8966Y637D01*
Y586D01*
X8940Y560D01*
X8966Y713D02*
X8940D01*
Y738D01*
X8966D01*
Y713D01*
X8839Y840D02*
X8813Y865D01*
Y916D01*
X8839Y941D01*
X8864D01*
X8889Y916D01*
Y891D01*
Y916D01*
X8915Y941D01*
X8940D01*
X8966Y916D01*
Y865D01*
X8940Y840D01*
X8966Y992D02*
Y1043D01*
Y1018D01*
X8813D01*
X8839Y992D01*
X9039Y550D02*
Y652D01*
X9064D01*
X9166Y550D01*
X9191D01*
X9166Y702D02*
X9191Y728D01*
Y779D01*
X9166Y804D01*
X9064D01*
X9039Y779D01*
Y728D01*
X9064Y702D01*
X9090D01*
X9115Y728D01*
Y804D01*
X9039Y956D02*
Y855D01*
X9115D01*
X9090Y906D01*
Y931D01*
X9115Y956D01*
X9166D01*
X9191Y931D01*
Y880D01*
X9166Y855D01*
X9191Y1007D02*
X9166D01*
Y1032D01*
X9191D01*
Y1007D01*
X9064Y1134D02*
X9039Y1159D01*
Y1210D01*
X9064Y1236D01*
X9166D01*
X9191Y1210D01*
Y1159D01*
X9166Y1134D01*
X9064D01*
Y1286D02*
X9039Y1312D01*
Y1363D01*
X9064Y1388D01*
X9166D01*
X9191Y1363D01*
Y1312D01*
X9166Y1286D01*
X9064D01*
X9491Y1255D02*
Y1306D01*
Y1280D01*
X9339D01*
X9364Y1255D01*
X9491Y1458D02*
X9339D01*
X9415Y1382D01*
Y1483D01*
X9364Y1534D02*
X9339Y1560D01*
Y1610D01*
X9364Y1636D01*
X9466D01*
X9491Y1610D01*
Y1560D01*
X9466Y1534D01*
X9364D01*
Y1687D02*
X9339Y1712D01*
Y1763D01*
X9364Y1788D01*
X9466D01*
X9491Y1763D01*
Y1712D01*
X9466Y1687D01*
X9364D01*
X9491Y1839D02*
X9466D01*
Y1864D01*
X9491D01*
Y1839D01*
X9364Y1966D02*
X9339Y1991D01*
Y2042D01*
X9364Y2067D01*
X9466D01*
X9491Y2042D01*
Y1991D01*
X9466Y1966D01*
X9364D01*
Y2118D02*
X9339Y2144D01*
Y2194D01*
X9364Y2220D01*
X9466D01*
X9491Y2194D01*
Y2144D01*
X9466Y2118D01*
X9364D01*
X9691Y1764D02*
Y1815D01*
Y1790D01*
X9539D01*
X9564Y1764D01*
X9539Y1891D02*
Y1993D01*
X9564D01*
X9666Y1891D01*
X9691D01*
X9564Y2044D02*
X9539Y2069D01*
Y2120D01*
X9564Y2145D01*
X9590D01*
X9615Y2120D01*
X9641Y2145D01*
X9666D01*
X9691Y2120D01*
Y2069D01*
X9666Y2044D01*
X9641D01*
X9615Y2069D01*
X9590Y2044D01*
X9564D01*
X9615Y2069D02*
Y2120D01*
X9691Y2196D02*
Y2247D01*
Y2221D01*
X9539D01*
X9564Y2196D01*
X9691Y2323D02*
X9666D01*
Y2348D01*
X9691D01*
Y2323D01*
Y2450D02*
Y2501D01*
Y2475D01*
X9539D01*
X9564Y2450D01*
Y2577D02*
X9539Y2602D01*
Y2653D01*
X9564Y2678D01*
X9666D01*
X9691Y2653D01*
Y2602D01*
X9666Y2577D01*
X9564D01*
X9991Y1822D02*
Y1873D01*
Y1847D01*
X9839D01*
X9864Y1822D01*
Y1949D02*
X9839Y1974D01*
Y2025D01*
X9864Y2050D01*
X9890D01*
X9915Y2025D01*
X9941Y2050D01*
X9966D01*
X9991Y2025D01*
Y1974D01*
X9966Y1949D01*
X9941D01*
X9915Y1974D01*
X9890Y1949D01*
X9864D01*
X9915Y1974D02*
Y2025D01*
X9991Y2177D02*
X9839D01*
X9915Y2101D01*
Y2203D01*
X9839Y2355D02*
X9864Y2304D01*
X9915Y2254D01*
X9966D01*
X9991Y2279D01*
Y2330D01*
X9966Y2355D01*
X9941D01*
X9915Y2330D01*
Y2254D01*
X9991Y2406D02*
X9966D01*
Y2431D01*
X9991D01*
Y2406D01*
Y2609D02*
X9839D01*
X9915Y2533D01*
Y2634D01*
X9839Y2787D02*
X9864Y2736D01*
X9915Y2685D01*
X9966D01*
X9991Y2711D01*
Y2761D01*
X9966Y2787D01*
X9941D01*
X9915Y2761D01*
Y2685D01*
X-792Y7061D02*
X-894D01*
Y6985D01*
X-843Y7010D01*
X-818D01*
X-792Y6985D01*
Y6934D01*
X-818Y6909D01*
X-868D01*
X-894Y6934D01*
X-640Y7061D02*
X-741D01*
Y6985D01*
X-691Y7010D01*
X-665D01*
X-640Y6985D01*
Y6934D01*
X-665Y6909D01*
X-716D01*
X-741Y6934D01*
X-589Y7036D02*
X-564Y7061D01*
X-513D01*
X-488Y7036D01*
Y6934D01*
X-513Y6909D01*
X-564D01*
X-589Y6934D01*
Y7036D01*
X-437Y6909D02*
Y6934D01*
X-411D01*
Y6909D01*
X-437D01*
X-310Y7036D02*
X-284Y7061D01*
X-234D01*
X-208Y7036D01*
Y6934D01*
X-234Y6909D01*
X-284D01*
X-310Y6934D01*
Y7036D01*
X-157D02*
X-132Y7061D01*
X-81D01*
X-56Y7036D01*
Y6934D01*
X-81Y6909D01*
X-132D01*
X-157Y6934D01*
Y7036D01*
X372Y7461D02*
X270D01*
Y7385D01*
X321Y7410D01*
X347D01*
X372Y7385D01*
Y7334D01*
X347Y7309D01*
X296D01*
X270Y7334D01*
X423Y7461D02*
X524D01*
Y7436D01*
X423Y7334D01*
Y7309D01*
X651D02*
Y7461D01*
X575Y7385D01*
X677D01*
X727Y7309D02*
Y7334D01*
X753D01*
Y7309D01*
X727D01*
X854Y7436D02*
X880Y7461D01*
X931D01*
X956Y7436D01*
Y7410D01*
X931Y7385D01*
X956Y7359D01*
Y7334D01*
X931Y7309D01*
X880D01*
X854Y7334D01*
Y7359D01*
X880Y7385D01*
X854Y7410D01*
Y7436D01*
X880Y7385D02*
X931D01*
X1007Y7436D02*
X1032Y7461D01*
X1083D01*
X1108Y7436D01*
Y7334D01*
X1083Y7309D01*
X1032D01*
X1007Y7334D01*
Y7436D01*
X887Y8009D02*
X937D01*
X912D01*
Y8161D01*
X887Y8136D01*
X1014Y8009D02*
X1064D01*
X1039D01*
Y8161D01*
X1014Y8136D01*
X1141D02*
X1166Y8161D01*
X1217D01*
X1242Y8136D01*
Y8034D01*
X1217Y8009D01*
X1166D01*
X1141Y8034D01*
Y8136D01*
X1293D02*
X1318Y8161D01*
X1369D01*
X1394Y8136D01*
Y8034D01*
X1369Y8009D01*
X1318D01*
X1293Y8034D01*
Y8136D01*
X1445Y8009D02*
Y8034D01*
X1471D01*
Y8009D01*
X1445D01*
X1572Y8136D02*
X1598Y8161D01*
X1648D01*
X1674Y8136D01*
Y8034D01*
X1648Y8009D01*
X1598D01*
X1572Y8034D01*
Y8136D01*
X1725D02*
X1750Y8161D01*
X1801D01*
X1826Y8136D01*
Y8034D01*
X1801Y8009D01*
X1750D01*
X1725Y8034D01*
Y8136D01*
X2717Y8815D02*
X2615D01*
X2717Y8917D01*
Y8942D01*
X2691Y8968D01*
X2641D01*
X2615Y8942D01*
X2844Y8815D02*
Y8968D01*
X2768Y8891D01*
X2869D01*
X2996Y8815D02*
Y8968D01*
X2920Y8891D01*
X3022D01*
X3072Y8942D02*
X3098Y8968D01*
X3148D01*
X3174Y8942D01*
Y8917D01*
X3148Y8891D01*
X3123D01*
X3148D01*
X3174Y8866D01*
Y8841D01*
X3148Y8815D01*
X3098D01*
X3072Y8841D01*
X3225Y8815D02*
Y8841D01*
X3250D01*
Y8815D01*
X3225D01*
X3453Y8968D02*
X3352D01*
Y8891D01*
X3402Y8917D01*
X3428D01*
X3453Y8891D01*
Y8841D01*
X3428Y8815D01*
X3377D01*
X3352Y8841D01*
X3504Y8942D02*
X3529Y8968D01*
X3580D01*
X3606Y8942D01*
Y8841D01*
X3580Y8815D01*
X3529D01*
X3504Y8841D01*
Y8942D01*
X1560Y8256D02*
X1610D01*
X1585D01*
Y8409D01*
X1560Y8383D01*
X1788Y8409D02*
X1737Y8383D01*
X1687Y8332D01*
Y8282D01*
X1712Y8256D01*
X1763D01*
X1788Y8282D01*
Y8307D01*
X1763Y8332D01*
X1687D01*
X1915Y8256D02*
Y8409D01*
X1839Y8332D01*
X1941D01*
X1991Y8383D02*
X2017Y8409D01*
X2068D01*
X2093Y8383D01*
Y8282D01*
X2068Y8256D01*
X2017D01*
X1991Y8282D01*
Y8383D01*
X2144Y8256D02*
Y8282D01*
X2169D01*
Y8256D01*
X2144D01*
X2271Y8383D02*
X2296Y8409D01*
X2347D01*
X2372Y8383D01*
Y8282D01*
X2347Y8256D01*
X2296D01*
X2271Y8282D01*
Y8383D01*
X2423D02*
X2448Y8409D01*
X2499D01*
X2525Y8383D01*
Y8282D01*
X2499Y8256D01*
X2448D01*
X2423Y8282D01*
Y8383D01*
X2106Y8556D02*
X2004D01*
X2106Y8658D01*
Y8683D01*
X2080Y8709D01*
X2030D01*
X2004Y8683D01*
X2157D02*
X2182Y8709D01*
X2233D01*
X2258Y8683D01*
Y8582D01*
X2233Y8556D01*
X2182D01*
X2157Y8582D01*
Y8683D01*
X2309D02*
X2334Y8709D01*
X2385D01*
X2410Y8683D01*
Y8582D01*
X2385Y8556D01*
X2334D01*
X2309Y8582D01*
Y8683D01*
X2461D02*
X2487Y8709D01*
X2537D01*
X2563Y8683D01*
Y8582D01*
X2537Y8556D01*
X2487D01*
X2461Y8582D01*
Y8683D01*
X2614Y8556D02*
Y8582D01*
X2639D01*
Y8556D01*
X2614D01*
X2741Y8683D02*
X2766Y8709D01*
X2817D01*
X2842Y8683D01*
Y8582D01*
X2817Y8556D01*
X2766D01*
X2741Y8582D01*
Y8683D01*
X2893D02*
X2918Y8709D01*
X2969D01*
X2994Y8683D01*
Y8582D01*
X2969Y8556D01*
X2918D01*
X2893Y8582D01*
Y8683D01*
X2741Y9109D02*
X2639D01*
X2741Y9210D01*
Y9236D01*
X2715Y9261D01*
X2665D01*
X2639Y9236D01*
X2893Y9261D02*
X2792D01*
Y9185D01*
X2842Y9210D01*
X2868D01*
X2893Y9185D01*
Y9134D01*
X2868Y9109D01*
X2817D01*
X2792Y9134D01*
X2944Y9236D02*
X2969Y9261D01*
X3020D01*
X3045Y9236D01*
Y9134D01*
X3020Y9109D01*
X2969D01*
X2944Y9134D01*
Y9236D01*
X3096D02*
X3122Y9261D01*
X3172D01*
X3198Y9236D01*
Y9134D01*
X3172Y9109D01*
X3122D01*
X3096Y9134D01*
Y9236D01*
X3249Y9109D02*
Y9134D01*
X3274D01*
Y9109D01*
X3249D01*
X3376Y9236D02*
X3401Y9261D01*
X3452D01*
X3477Y9236D01*
Y9134D01*
X3452Y9109D01*
X3401D01*
X3376Y9134D01*
Y9236D01*
X3528D02*
X3553Y9261D01*
X3604D01*
X3629Y9236D01*
Y9134D01*
X3604Y9109D01*
X3553D01*
X3528Y9134D01*
Y9236D01*
X2868Y9309D02*
X2766D01*
X2868Y9410D01*
Y9436D01*
X2842Y9461D01*
X2792D01*
X2766Y9436D01*
X3020Y9461D02*
X2969Y9436D01*
X2919Y9385D01*
Y9334D01*
X2944Y9309D01*
X2995D01*
X3020Y9334D01*
Y9359D01*
X2995Y9385D01*
X2919D01*
X3071Y9436D02*
X3096Y9461D01*
X3147D01*
X3172Y9436D01*
Y9334D01*
X3147Y9309D01*
X3096D01*
X3071Y9334D01*
Y9436D01*
X3223D02*
X3249Y9461D01*
X3299D01*
X3325Y9436D01*
Y9334D01*
X3299Y9309D01*
X3249D01*
X3223Y9334D01*
Y9436D01*
X3376Y9309D02*
Y9334D01*
X3401D01*
Y9309D01*
X3376D01*
X3503Y9436D02*
X3528Y9461D01*
X3579D01*
X3604Y9436D01*
Y9334D01*
X3579Y9309D01*
X3528D01*
X3503Y9334D01*
Y9436D01*
X3655D02*
X3680Y9461D01*
X3731D01*
X3756Y9436D01*
Y9334D01*
X3731Y9309D01*
X3680D01*
X3655Y9334D01*
Y9436D01*
X3009Y9709D02*
X2908D01*
X3009Y9810D01*
Y9836D01*
X2984Y9861D01*
X2933D01*
X2908Y9836D01*
X3060Y9861D02*
X3162D01*
Y9836D01*
X3060Y9734D01*
Y9709D01*
X3212Y9836D02*
X3238Y9861D01*
X3289D01*
X3314Y9836D01*
Y9734D01*
X3289Y9709D01*
X3238D01*
X3212Y9734D01*
Y9836D01*
X3365Y9709D02*
X3415D01*
X3390D01*
Y9861D01*
X3365Y9836D01*
X3492Y9709D02*
Y9734D01*
X3517D01*
Y9709D01*
X3492D01*
X3619Y9836D02*
X3644Y9861D01*
X3695D01*
X3720Y9836D01*
Y9810D01*
X3695Y9785D01*
X3669D01*
X3695D01*
X3720Y9759D01*
Y9734D01*
X3695Y9709D01*
X3644D01*
X3619Y9734D01*
X3873Y9861D02*
X3822Y9836D01*
X3771Y9785D01*
Y9734D01*
X3796Y9709D01*
X3847D01*
X3873Y9734D01*
Y9759D01*
X3847Y9785D01*
X3771D01*
X10791Y2240D02*
Y2139D01*
X10690Y2240D01*
X10664D01*
X10639Y2215D01*
Y2164D01*
X10664Y2139D01*
Y2291D02*
X10639Y2317D01*
Y2367D01*
X10664Y2393D01*
X10766D01*
X10791Y2367D01*
Y2317D01*
X10766Y2291D01*
X10664D01*
X10766Y2444D02*
X10791Y2469D01*
Y2520D01*
X10766Y2545D01*
X10664D01*
X10639Y2520D01*
Y2469D01*
X10664Y2444D01*
X10690D01*
X10715Y2469D01*
Y2545D01*
X10664Y2596D02*
X10639Y2621D01*
Y2672D01*
X10664Y2697D01*
X10690D01*
X10715Y2672D01*
X10741Y2697D01*
X10766D01*
X10791Y2672D01*
Y2621D01*
X10766Y2596D01*
X10741D01*
X10715Y2621D01*
X10690Y2596D01*
X10664D01*
X10715Y2621D02*
Y2672D01*
X10791Y2748D02*
X10766D01*
Y2774D01*
X10791D01*
Y2748D01*
X10664Y2875D02*
X10639Y2901D01*
Y2951D01*
X10664Y2977D01*
X10690D01*
X10715Y2951D01*
Y2926D01*
Y2951D01*
X10741Y2977D01*
X10766D01*
X10791Y2951D01*
Y2901D01*
X10766Y2875D01*
X10639Y3129D02*
Y3028D01*
X10715D01*
X10690Y3078D01*
Y3104D01*
X10715Y3129D01*
X10766D01*
X10791Y3104D01*
Y3053D01*
X10766Y3028D01*
M02*
