G04*
G04 #@! TF.GenerationSoftware,Altium Limited,Altium Designer,24.5.2 (23)*
G04*
G04 Layer_Color=8421504*
%FSLAX42Y42*%
%MOMM*%
G71*
G04*
G04 #@! TF.SameCoordinates,800EA35B-6491-4ADE-9D72-18F2112E8D14*
G04*
G04*
G04 #@! TF.FilePolarity,Positive*
G04*
G01*
G75*
%ADD14C,1.40*%
%ADD15R,1.35X0.80*%
%ADD16R,0.80X1.35*%
%ADD17R,0.73X0.93*%
%ADD18R,1.35X0.40*%
%ADD19R,1.40X1.60*%
%ADD20R,1.90X1.90*%
%ADD21R,1.55X1.35*%
%ADD22R,1.35X1.55*%
%ADD23R,0.66X2.20*%
%ADD24R,3.20X2.20*%
%ADD25R,2.50X2.60*%
%ADD26R,2.60X2.50*%
%ADD27R,1.10X0.60*%
%ADD28R,0.60X1.10*%
%ADD29R,1.60X3.00*%
%ADD30R,2.20X1.20*%
%ADD31R,0.80X0.80*%
%ADD32R,0.55X1.55*%
%ADD33R,1.55X0.55*%
%ADD34R,0.85X0.85*%
D14*
X2309Y411D02*
G03*
X2309Y411I-70J0D01*
G01*
X1060Y5170D02*
G03*
X1060Y5170I-70J0D01*
G01*
X6770Y200D02*
G03*
X6770Y200I-70J0D01*
G01*
X6760Y5110D02*
G03*
X6760Y5110I-70J0D01*
G01*
D15*
X1710Y4092D02*
D03*
Y4288D02*
D03*
X2714Y4598D02*
D03*
Y4403D02*
D03*
X2740Y3922D02*
D03*
Y4117D02*
D03*
X2210Y2798D02*
D03*
Y2602D02*
D03*
X5890Y4788D02*
D03*
Y4592D02*
D03*
X6100D02*
D03*
Y4788D02*
D03*
X6350Y4347D02*
D03*
Y4153D02*
D03*
X2524Y1380D02*
D03*
Y1575D02*
D03*
X375Y2573D02*
D03*
Y2768D02*
D03*
X6530Y2478D02*
D03*
Y2283D02*
D03*
X3361Y653D02*
D03*
Y848D02*
D03*
X3360Y465D02*
D03*
Y660D02*
D03*
X785Y2804D02*
D03*
Y2999D02*
D03*
X6760Y1889D02*
D03*
Y2084D02*
D03*
X590Y2949D02*
D03*
Y2754D02*
D03*
X6760Y2440D02*
D03*
Y2245D02*
D03*
X2720Y493D02*
D03*
Y688D02*
D03*
X1266Y2210D02*
D03*
Y2405D02*
D03*
D16*
X1030Y2040D02*
D03*
X835D02*
D03*
X831Y1827D02*
D03*
X1026D02*
D03*
X1108Y1627D02*
D03*
X913D02*
D03*
X3562Y1020D02*
D03*
X3758D02*
D03*
X2342Y4520D02*
D03*
X2537D02*
D03*
X4053Y2280D02*
D03*
X4247D02*
D03*
X5812Y3410D02*
D03*
X6007D02*
D03*
X2692Y890D02*
D03*
X2888D02*
D03*
X6207Y2268D02*
D03*
X6012D02*
D03*
X875Y3619D02*
D03*
X1070D02*
D03*
D17*
X134Y2956D02*
D03*
X357D02*
D03*
X6285Y2439D02*
D03*
X6062D02*
D03*
D18*
X487Y2140D02*
D03*
Y2075D02*
D03*
Y2010D02*
D03*
Y1945D02*
D03*
Y1880D02*
D03*
D19*
X465Y2330D02*
D03*
Y1690D02*
D03*
D20*
X220Y2130D02*
D03*
Y1890D02*
D03*
D21*
X6330Y4750D02*
D03*
Y4550D02*
D03*
X2414Y2360D02*
D03*
Y2160D02*
D03*
X1672Y2246D02*
D03*
Y2046D02*
D03*
X1140Y1340D02*
D03*
Y1140D02*
D03*
X2210Y1200D02*
D03*
Y1000D02*
D03*
X1980Y1950D02*
D03*
Y1750D02*
D03*
X2158Y2175D02*
D03*
Y2375D02*
D03*
X2200Y3000D02*
D03*
Y3200D02*
D03*
X1931Y2174D02*
D03*
Y2374D02*
D03*
X2517Y1740D02*
D03*
Y1940D02*
D03*
X3000Y490D02*
D03*
Y690D02*
D03*
X3580D02*
D03*
Y490D02*
D03*
X2126Y4299D02*
D03*
Y4499D02*
D03*
X2250Y1760D02*
D03*
Y1960D02*
D03*
X132Y2538D02*
D03*
Y2738D02*
D03*
X6528Y1908D02*
D03*
Y2108D02*
D03*
X2470Y1000D02*
D03*
Y1200D02*
D03*
D22*
X420Y4390D02*
D03*
X220D02*
D03*
X5030Y1000D02*
D03*
X4830D02*
D03*
X2610Y4830D02*
D03*
X2410D02*
D03*
X3960Y740D02*
D03*
X4160D02*
D03*
X5684Y3170D02*
D03*
X5884D02*
D03*
X5030Y740D02*
D03*
X4830D02*
D03*
X4390D02*
D03*
X4590D02*
D03*
X2610Y3500D02*
D03*
X2410D02*
D03*
X4050Y500D02*
D03*
X3850D02*
D03*
X326Y5208D02*
D03*
X526D02*
D03*
X4480Y2300D02*
D03*
X4680D02*
D03*
X4160Y1000D02*
D03*
X3960D02*
D03*
X4590D02*
D03*
X4390D02*
D03*
X4250Y2563D02*
D03*
X4050D02*
D03*
X4480Y2560D02*
D03*
X4680D02*
D03*
X6496Y1272D02*
D03*
X6696D02*
D03*
X570Y2559D02*
D03*
X770D02*
D03*
D23*
X1372Y1161D02*
D03*
X1499D02*
D03*
X1626D02*
D03*
X1753D02*
D03*
X1880D02*
D03*
D24*
X1626Y1781D02*
D03*
D25*
X4605Y2960D02*
D03*
X4115D02*
D03*
D26*
X2550Y2720D02*
D03*
Y3210D02*
D03*
D27*
X1930Y4425D02*
D03*
Y4615D02*
D03*
X1670Y4425D02*
D03*
Y4520D02*
D03*
Y4615D02*
D03*
X2330Y1370D02*
D03*
Y1560D02*
D03*
X2070Y1370D02*
D03*
Y1465D02*
D03*
Y1560D02*
D03*
D28*
X1113Y2481D02*
D03*
X923D02*
D03*
X1113Y2221D02*
D03*
X1018D02*
D03*
X923D02*
D03*
X6509Y1465D02*
D03*
X6699D02*
D03*
X6509Y1725D02*
D03*
X6604D02*
D03*
X6699D02*
D03*
D29*
X720Y1020D02*
D03*
Y1460D02*
D03*
X710Y250D02*
D03*
Y690D02*
D03*
D30*
X230Y730D02*
D03*
Y950D02*
D03*
D31*
X2545Y4061D02*
D03*
X2375D02*
D03*
X6010Y3578D02*
D03*
X5840D02*
D03*
X2545Y4205D02*
D03*
X2375D02*
D03*
X2545Y4349D02*
D03*
X2375D02*
D03*
D32*
X1820Y2580D02*
D03*
X1740D02*
D03*
X1660D02*
D03*
X1580D02*
D03*
X1500D02*
D03*
X1420D02*
D03*
X1340D02*
D03*
X1260D02*
D03*
Y3420D02*
D03*
X1340D02*
D03*
X1420D02*
D03*
X1500D02*
D03*
X1580D02*
D03*
X1660D02*
D03*
X1740D02*
D03*
X1820D02*
D03*
D33*
X1120Y2720D02*
D03*
Y2800D02*
D03*
Y2880D02*
D03*
Y2960D02*
D03*
Y3040D02*
D03*
Y3120D02*
D03*
Y3200D02*
D03*
Y3280D02*
D03*
X1960D02*
D03*
Y3200D02*
D03*
Y3120D02*
D03*
Y3040D02*
D03*
Y2960D02*
D03*
Y2880D02*
D03*
Y2800D02*
D03*
Y2720D02*
D03*
D34*
X665Y2122D02*
D03*
Y2292D02*
D03*
X668Y1938D02*
D03*
Y1768D02*
D03*
M02*
