G04*
G04 #@! TF.GenerationSoftware,Altium Limited,Altium Designer,24.5.2 (23)*
G04*
G04 Layer_Color=65535*
%FSLAX42Y42*%
%MOMM*%
G71*
G04*
G04 #@! TF.SameCoordinates,800EA35B-6491-4ADE-9D72-18F2112E8D14*
G04*
G04*
G04 #@! TF.FilePolarity,Positive*
G04*
G01*
G75*
%ADD10C,0.20*%
%ADD11C,0.50*%
%ADD12C,0.25*%
%ADD13C,0.15*%
D10*
X1710Y5160D02*
G03*
X1710Y5160I-250J0D01*
G01*
X6346Y1702D02*
G03*
X6346Y1575I0J-63D01*
G01*
X2180Y730D02*
X2371D01*
X2570Y236D02*
Y600D01*
X2337Y130D02*
X2338Y131D01*
X2180Y130D02*
X2337D01*
X1970Y269D02*
X1970Y269D01*
Y575D01*
X1810Y4018D02*
Y4360D01*
X1610Y4018D02*
Y4360D01*
X1810D01*
X1610Y4018D02*
X1810D01*
X2614Y4329D02*
X2814D01*
X2614Y4671D02*
X2814D01*
X2614Y4329D02*
Y4671D01*
X2814Y4329D02*
Y4671D01*
X2840Y3848D02*
Y4190D01*
X2640Y3848D02*
Y4190D01*
X2840D01*
X2640Y3848D02*
X2840D01*
X761Y1940D02*
Y2140D01*
X1103Y1940D02*
Y2140D01*
X761D02*
X1103D01*
X761Y1940D02*
X1103D01*
X756Y1727D02*
X1098D01*
X756Y1927D02*
X1098D01*
Y1727D02*
Y1927D01*
X756Y1727D02*
Y1927D01*
X838Y1527D02*
Y1727D01*
X1180Y1527D02*
Y1727D01*
X838D02*
X1180D01*
X838Y1527D02*
X1180D01*
X2110Y2530D02*
Y2872D01*
X2310Y2530D02*
Y2872D01*
X2110Y2530D02*
X2310D01*
X2110Y2872D02*
X2310D01*
X5790Y4518D02*
X5990D01*
X5790Y4860D02*
X5990D01*
X5790Y4518D02*
Y4860D01*
X5990Y4518D02*
Y4860D01*
X6200Y4518D02*
Y4860D01*
X6000Y4518D02*
Y4860D01*
X6200D01*
X6000Y4518D02*
X6200D01*
X6250Y4078D02*
X6450D01*
X6250Y4420D02*
X6450D01*
X6250Y4078D02*
Y4420D01*
X6450Y4078D02*
Y4420D01*
X3488Y920D02*
X3830D01*
X3488Y1120D02*
X3830D01*
Y920D02*
Y1120D01*
X3488Y920D02*
Y1120D01*
X2612Y4420D02*
Y4620D01*
X2270Y4420D02*
Y4620D01*
Y4420D02*
X2612D01*
X2270Y4620D02*
X2612D01*
X3978Y2180D02*
X4320D01*
X3978Y2380D02*
X4320D01*
Y2180D02*
Y2380D01*
X3978Y2180D02*
Y2380D01*
X6082Y3310D02*
Y3510D01*
X5740Y3310D02*
Y3510D01*
Y3310D02*
X6082D01*
X5740Y3510D02*
X6082D01*
X2624Y1305D02*
Y1647D01*
X2424Y1305D02*
Y1647D01*
X2624D01*
X2424Y1305D02*
X2624D01*
X275Y2843D02*
X475D01*
X275Y2501D02*
X475D01*
Y2843D01*
X275Y2501D02*
Y2843D01*
X6430Y2211D02*
Y2553D01*
X6630Y2211D02*
Y2553D01*
X6430Y2211D02*
X6630D01*
X6430Y2553D02*
X6630D01*
X2962Y790D02*
Y990D01*
X2620Y790D02*
Y990D01*
Y790D02*
X2962D01*
X2620Y990D02*
X2962D01*
X3461Y579D02*
Y921D01*
X3261Y579D02*
Y921D01*
X3461D01*
X3261Y579D02*
X3461D01*
X3260Y735D02*
X3460D01*
X3260Y392D02*
X3460D01*
Y735D01*
X3260Y392D02*
Y735D01*
X885Y2730D02*
Y3072D01*
X685Y2730D02*
Y3072D01*
X885D01*
X685Y2730D02*
X885D01*
X5938Y2168D02*
Y2368D01*
X6280Y2168D02*
Y2368D01*
X5938D02*
X6280D01*
X5938Y2168D02*
X6280D01*
X6860Y1814D02*
Y2156D01*
X6660Y1814D02*
Y2156D01*
X6860D01*
X6660Y1814D02*
X6860D01*
X490Y2679D02*
X690D01*
X490Y3021D02*
X690D01*
X490Y2679D02*
Y3021D01*
X690Y2679D02*
Y3021D01*
X6660Y2172D02*
Y2514D01*
X6860Y2172D02*
Y2514D01*
X6660Y2172D02*
X6860D01*
X6660Y2514D02*
X6860D01*
X2620Y762D02*
X2820D01*
X2620Y420D02*
X2820D01*
Y762D01*
X2620Y420D02*
Y762D01*
X1366Y2135D02*
Y2478D01*
X1166Y2135D02*
Y2478D01*
X1366D01*
X1166Y2135D02*
X1366D01*
X1145Y3519D02*
Y3719D01*
X803Y3519D02*
Y3719D01*
Y3519D02*
X1145D01*
X803Y3719D02*
X1145D01*
X25Y2882D02*
X475D01*
X25Y3032D02*
X475D01*
Y2882D02*
Y3032D01*
X6404Y2365D02*
Y2515D01*
X5954D02*
X6404D01*
X5954Y2365D02*
X6404D01*
X-56Y1622D02*
Y2408D01*
X4Y1620D02*
Y2410D01*
X74Y1620D02*
Y2410D01*
X-146Y1460D02*
Y2560D01*
X-266Y1460D02*
X-146D01*
X-256Y2560D02*
X-146D01*
Y2353D02*
X-89D01*
X-146Y1678D02*
X-88D01*
X-236Y2010D02*
X-146D01*
X-236D02*
X-196D01*
X-149D02*
X-146D01*
X-191Y2052D02*
X-149Y2010D01*
X-149D02*
X-148D01*
X-192Y1967D02*
X-149Y2010D01*
X514Y1794D02*
Y1837D01*
X332Y1620D02*
X375D01*
X331Y2410D02*
X374D01*
X-54Y2409D02*
X113D01*
X514Y2189D02*
Y2227D01*
X-51Y1620D02*
X97D01*
X118Y3730D02*
Y4242D01*
Y3730D02*
X891D01*
Y4242D01*
X118D02*
X891D01*
X72Y4563D02*
Y5075D01*
Y4563D02*
X845D01*
Y5075D01*
X72D02*
X845D01*
X127Y3039D02*
X644D01*
X127Y3551D02*
X644D01*
Y3039D02*
Y3551D01*
X127Y3039D02*
Y3551D01*
X6450Y4450D02*
Y4850D01*
X6215Y4450D02*
Y4844D01*
X6215Y4850D02*
X6450D01*
X6215Y4450D02*
X6450D01*
X520Y4275D02*
Y4510D01*
X120Y4275D02*
Y4510D01*
X126Y4275D02*
X520D01*
X120Y4510D02*
X520D01*
X6346Y1105D02*
Y1194D01*
Y1702D02*
Y2083D01*
Y1194D02*
Y1575D01*
X2727Y1129D02*
X6333D01*
X2727Y2151D02*
X6333Y2151D01*
X2727Y1129D02*
Y2151D01*
X1276Y1651D02*
X1976D01*
Y1291D02*
Y1651D01*
X1276Y1291D02*
X1976D01*
X1276D02*
Y1651D01*
X2294Y2460D02*
X2529D01*
X2294Y2060D02*
X2529D01*
X2529Y2066D02*
Y2460D01*
X2294Y2060D02*
Y2460D01*
X1552Y2346D02*
X1787D01*
X1552Y1946D02*
X1788D01*
X1787Y1952D02*
Y2346D01*
X1552Y1946D02*
Y2346D01*
X1020Y1440D02*
X1255D01*
X1020Y1040D02*
X1255D01*
X1255Y1046D02*
Y1440D01*
X1020Y1040D02*
Y1440D01*
X2090Y1300D02*
X2325D01*
X2090Y900D02*
X2325D01*
X2325Y906D02*
Y1300D01*
X2090Y900D02*
Y1300D01*
X5130Y885D02*
Y1120D01*
X4730Y885D02*
Y1120D01*
X4736Y885D02*
X5130D01*
X4730Y1120D02*
X5130D01*
X2710Y4715D02*
Y4950D01*
X2310Y4715D02*
Y4950D01*
X2316Y4715D02*
X2710D01*
X2310Y4950D02*
X2710D01*
X3860Y620D02*
Y855D01*
X4260Y620D02*
Y855D01*
X3860Y855D02*
X4254D01*
X3860Y620D02*
X4260D01*
X5584Y3050D02*
Y3285D01*
X5984Y3050D02*
Y3286D01*
X5584Y3285D02*
X5979D01*
X5584Y3050D02*
X5984D01*
X3940Y2710D02*
X4780D01*
X3940Y3210D02*
X4780D01*
X3940Y2710D02*
Y3210D01*
X4780Y2710D02*
Y3210D01*
X2300Y2545D02*
Y3385D01*
X2800Y2545D02*
Y3385D01*
X2300D02*
X2800D01*
X2300Y2545D02*
X2800D01*
X2100Y1650D02*
Y2050D01*
X1865Y1650D02*
Y2044D01*
X1865Y2050D02*
X2100D01*
X1865Y1650D02*
X2100D01*
X4730Y620D02*
X5130D01*
X4730Y855D02*
X5124D01*
X5130Y620D02*
Y855D01*
X4730Y620D02*
Y855D01*
X4290Y860D02*
X4690D01*
X4296Y625D02*
X4690D01*
X4290Y625D02*
Y860D01*
X4690Y625D02*
Y860D01*
X1881Y4482D02*
Y4558D01*
X1759Y4632D02*
X1834D01*
X1754Y4410D02*
X1830D01*
X980Y2432D02*
X1055D01*
X906Y2311D02*
Y2385D01*
X1127Y2305D02*
Y2382D01*
X6566Y1514D02*
X6642D01*
X6716Y1562D02*
Y1636D01*
X6494Y1565D02*
Y1641D01*
X2281Y1427D02*
Y1503D01*
X2159Y1577D02*
X2234D01*
X2154Y1355D02*
X2230D01*
X837Y1520D02*
X1000D01*
X931Y961D02*
X1000Y1030D01*
X440Y1051D02*
X485Y1005D01*
X841Y959D02*
X843Y961D01*
X931D01*
Y961D01*
X1000Y1031D01*
Y1040D01*
Y1051D01*
X531Y960D02*
X601D01*
X440Y1051D02*
X531Y960D01*
X440Y1520D02*
X610D01*
X1000Y1030D02*
Y1520D01*
X440Y1051D02*
Y1520D01*
X827Y750D02*
X990D01*
X921Y190D02*
X990Y259D01*
X430Y280D02*
X475Y235D01*
X831Y189D02*
X833Y190D01*
X921D01*
Y191D01*
X990Y260D01*
Y270D01*
Y280D01*
X521Y189D02*
X591D01*
X430Y280D02*
X521Y189D01*
X430Y750D02*
X600D01*
X990Y259D02*
Y750D01*
X430Y280D02*
Y750D01*
X90Y1030D02*
X370D01*
Y650D02*
Y1030D01*
X90Y650D02*
X370D01*
X90D02*
Y1030D01*
X6729Y2756D02*
Y2947D01*
X6235Y2557D02*
X6599D01*
X6129Y2789D02*
X6130Y2788D01*
X6129Y2789D02*
Y2947D01*
X6268Y3157D02*
X6268Y3157D01*
X6574D01*
X2305Y4131D02*
X2615D01*
X2305Y3991D02*
Y4131D01*
Y3991D02*
X2615D01*
Y4131D01*
X2264Y4015D02*
Y4115D01*
X5770Y3648D02*
X6080D01*
X5770Y3508D02*
Y3648D01*
Y3508D02*
X6080D01*
Y3648D01*
X5729Y3532D02*
Y3631D01*
X2305Y4275D02*
X2615D01*
X2305Y4135D02*
Y4275D01*
Y4135D02*
X2615D01*
Y4275D01*
X2264Y4159D02*
Y4259D01*
X2305Y4419D02*
X2615D01*
X2305Y4279D02*
Y4419D01*
Y4279D02*
X2615D01*
Y4419D01*
X2264Y4303D02*
Y4403D01*
X594Y2377D02*
X735D01*
X594Y2042D02*
Y2377D01*
X735Y2042D02*
Y2377D01*
X594Y2042D02*
X735D01*
X598Y1683D02*
X738D01*
Y2018D01*
X598Y1683D02*
Y2018D01*
X738D01*
X2038Y2075D02*
Y2475D01*
X2273Y2081D02*
Y2475D01*
X2038Y2075D02*
X2273D01*
X2038Y2475D02*
X2273D01*
X2085Y2900D02*
X2320D01*
X2085Y3300D02*
X2320D01*
X2085Y2900D02*
Y3294D01*
X2320Y2900D02*
Y3300D01*
X1811Y2074D02*
Y2474D01*
X2046Y2080D02*
Y2474D01*
X1811Y2074D02*
X2047D01*
X1811Y2474D02*
X2046D01*
X2310Y3380D02*
X2710D01*
X2310Y3615D02*
X2704D01*
X2710Y3380D02*
Y3615D01*
X2310Y3380D02*
Y3615D01*
X2402Y1640D02*
X2637D01*
X2402Y2040D02*
X2637D01*
X2402Y1640D02*
Y2035D01*
X2637Y1640D02*
Y2040D01*
X4150Y385D02*
Y620D01*
X3750Y385D02*
Y620D01*
X3756Y385D02*
X4150D01*
X3750Y620D02*
X4150D01*
X2880Y390D02*
Y790D01*
X3115Y396D02*
Y790D01*
X2880Y390D02*
X3115D01*
X2880Y790D02*
X3115D01*
X3460D02*
X3695D01*
X3460Y390D02*
X3695D01*
X3695Y396D02*
Y790D01*
X3460Y390D02*
Y790D01*
X226Y5328D02*
X626D01*
X231Y5093D02*
X626D01*
X226Y5093D02*
Y5328D01*
X626Y5093D02*
Y5328D01*
X4380Y2180D02*
Y2415D01*
X4780Y2180D02*
Y2415D01*
X4380Y2415D02*
X4774D01*
X4380Y2180D02*
X4780D01*
X3860Y880D02*
X4260D01*
X3860Y1115D02*
X4254D01*
X4260Y880D02*
Y1115D01*
X3860Y880D02*
Y1115D01*
X4690Y885D02*
Y1120D01*
X4290Y885D02*
Y1120D01*
X4296Y885D02*
X4690D01*
X4290Y1120D02*
X4690D01*
X3950Y2443D02*
X4350D01*
X3950Y2678D02*
X4344D01*
X4350Y2443D02*
Y2679D01*
X3950Y2443D02*
Y2678D01*
X2011Y4199D02*
X2246D01*
X2010Y4599D02*
X2246D01*
X2011Y4199D02*
Y4593D01*
X2246Y4199D02*
Y4599D01*
X4380Y2680D02*
X4780D01*
X4386Y2445D02*
X4780D01*
X4380Y2445D02*
Y2680D01*
X4780Y2445D02*
Y2680D01*
X6396Y1152D02*
Y1387D01*
X6796Y1152D02*
Y1388D01*
X6396Y1387D02*
X6791D01*
X6396Y1152D02*
X6796D01*
X2130Y1660D02*
Y2060D01*
X2365Y1666D02*
Y2060D01*
X2130Y1660D02*
X2365D01*
X2130Y2060D02*
X2365D01*
X17Y2438D02*
X252D01*
X17Y2838D02*
X252D01*
X17Y2438D02*
Y2832D01*
X252Y2438D02*
Y2838D01*
X470Y2679D02*
X870D01*
X476Y2444D02*
X870D01*
X470Y2444D02*
Y2679D01*
X870Y2444D02*
Y2679D01*
X6413Y1808D02*
X6648D01*
X6412Y2208D02*
X6648D01*
X6413Y1808D02*
Y2202D01*
X6648Y1808D02*
Y2208D01*
X2350Y900D02*
Y1300D01*
X2585Y906D02*
Y1300D01*
X2350Y900D02*
X2585D01*
X2350Y1300D02*
X2585D01*
X1810Y190D02*
X1893D01*
X1910Y207D01*
Y240D01*
X1893Y257D01*
X1810D01*
X1827Y357D02*
X1810Y340D01*
Y307D01*
X1827Y290D01*
X1843D01*
X1860Y307D01*
Y340D01*
X1877Y357D01*
X1893D01*
X1910Y340D01*
Y307D01*
X1893Y290D01*
X1810Y457D02*
Y390D01*
X1910D01*
Y457D01*
X1860Y390D02*
Y423D01*
X1910Y490D02*
X1810D01*
Y540D01*
X1827Y557D01*
X1860D01*
X1877Y540D01*
Y490D01*
Y523D02*
X1910Y557D01*
X5860Y2540D02*
X5760D01*
Y2590D01*
X5777Y2607D01*
X5810D01*
X5827Y2590D01*
Y2540D01*
Y2573D02*
X5860Y2607D01*
X5760Y2707D02*
Y2640D01*
X5860D01*
Y2707D01*
X5810Y2640D02*
Y2673D01*
X5777Y2807D02*
X5760Y2790D01*
Y2757D01*
X5777Y2740D01*
X5793D01*
X5810Y2757D01*
Y2790D01*
X5827Y2807D01*
X5843D01*
X5860Y2790D01*
Y2757D01*
X5843Y2740D01*
X5760Y2907D02*
Y2840D01*
X5860D01*
Y2907D01*
X5810Y2840D02*
Y2873D01*
X5760Y2940D02*
Y3007D01*
Y2973D01*
X5860D01*
X1673Y700D02*
X1640D01*
X1657D01*
Y617D01*
X1640Y600D01*
X1623D01*
X1607Y617D01*
X1707Y600D02*
Y700D01*
X1757D01*
X1773Y683D01*
Y650D01*
X1757Y633D01*
X1707D01*
X1857Y600D02*
Y700D01*
X1807Y650D01*
X1873D01*
X1083Y4570D02*
X1050D01*
X1067D01*
Y4487D01*
X1050Y4470D01*
X1033D01*
X1017Y4487D01*
X1117Y4470D02*
Y4570D01*
X1167D01*
X1183Y4553D01*
Y4520D01*
X1167Y4503D01*
X1117D01*
X1217Y4553D02*
X1233Y4570D01*
X1267D01*
X1283Y4553D01*
Y4537D01*
X1267Y4520D01*
X1250D01*
X1267D01*
X1283Y4503D01*
Y4487D01*
X1267Y4470D01*
X1233D01*
X1217Y4487D01*
X163Y3690D02*
X130D01*
X147D01*
Y3607D01*
X130Y3590D01*
X113D01*
X97Y3607D01*
X197Y3590D02*
Y3690D01*
X247D01*
X263Y3673D01*
Y3640D01*
X247Y3623D01*
X197D01*
X363Y3590D02*
X297D01*
X363Y3657D01*
Y3673D01*
X347Y3690D01*
X313D01*
X297Y3673D01*
X5920Y5340D02*
X5887D01*
X5903D01*
Y5257D01*
X5887Y5240D01*
X5870D01*
X5853Y5257D01*
X5953Y5240D02*
Y5340D01*
X6003D01*
X6020Y5323D01*
Y5290D01*
X6003Y5273D01*
X5953D01*
X6053Y5240D02*
X6087D01*
X6070D01*
Y5340D01*
X6053Y5323D01*
X993Y4170D02*
X960D01*
X977D01*
Y4087D01*
X960Y4070D01*
X943D01*
X927Y4087D01*
X1093Y4170D02*
X1060Y4153D01*
X1027Y4120D01*
Y4087D01*
X1043Y4070D01*
X1077D01*
X1093Y4087D01*
Y4103D01*
X1077Y4120D01*
X1027D01*
X953Y4880D02*
X920D01*
X937D01*
Y4797D01*
X920Y4780D01*
X903D01*
X887Y4797D01*
X1053Y4880D02*
X987D01*
Y4830D01*
X1020Y4847D01*
X1037D01*
X1053Y4830D01*
Y4797D01*
X1037Y4780D01*
X1003D01*
X987Y4797D01*
X3453Y4900D02*
X3420D01*
X3437D01*
Y4817D01*
X3420Y4800D01*
X3403D01*
X3387Y4817D01*
X3537Y4800D02*
Y4900D01*
X3487Y4850D01*
X3553D01*
X4903Y4880D02*
X4870D01*
X4887D01*
Y4797D01*
X4870Y4780D01*
X4853D01*
X4837Y4797D01*
X4937Y4863D02*
X4953Y4880D01*
X4987D01*
X5003Y4863D01*
Y4847D01*
X4987Y4830D01*
X4970D01*
X4987D01*
X5003Y4813D01*
Y4797D01*
X4987Y4780D01*
X4953D01*
X4937Y4797D01*
X5903Y540D02*
X5870D01*
X5887D01*
Y457D01*
X5870Y440D01*
X5853D01*
X5837Y457D01*
X6003Y440D02*
X5937D01*
X6003Y507D01*
Y523D01*
X5987Y540D01*
X5953D01*
X5937Y523D01*
X4390Y540D02*
X4357D01*
X4373D01*
Y457D01*
X4357Y440D01*
X4340D01*
X4323Y457D01*
X4423Y440D02*
X4457D01*
X4440D01*
Y540D01*
X4423Y523D01*
D11*
X2005Y2628D02*
G03*
X2005Y2628I-12J0D01*
G01*
D12*
X24Y2917D02*
Y2990D01*
X5953Y2400D02*
Y2473D01*
X6483Y4040D02*
Y4842D01*
X6748Y4040D02*
Y4842D01*
X6483D02*
X6748D01*
X6483Y4040D02*
X6748D01*
X6502Y5207D02*
X6503Y5207D01*
Y4953D02*
Y5207D01*
X4420Y4953D02*
X6503D01*
X4420Y5207D02*
X6502D01*
X4420Y4953D02*
Y5207D01*
X4420Y5207D01*
Y5207D02*
Y5207D01*
X4420Y5207D02*
X4420Y5207D01*
X4928Y127D02*
Y381D01*
X6502D01*
Y127D02*
Y381D01*
X4928Y127D02*
X6502D01*
X2641Y127D02*
X2642Y127D01*
X2641Y127D02*
Y381D01*
X4724D01*
X2642Y127D02*
X4724D01*
Y127D02*
Y381D01*
X4724Y127D02*
X4724Y127D01*
X4724Y127D02*
Y127D01*
X4724Y127D01*
X1010Y743D02*
X1812D01*
X1010Y1008D02*
X1812D01*
X1010Y743D02*
Y1008D01*
X1812Y743D02*
Y1008D01*
X1333Y4658D02*
X1587D01*
Y3642D02*
Y4658D01*
X1333Y3642D02*
X1587D01*
X1333D02*
Y4658D01*
X4318Y4953D02*
Y5207D01*
X1727Y4953D02*
X4318D01*
X1727D02*
Y5207D01*
X4318D01*
X1873Y3350D02*
X1890D01*
X1190Y3333D02*
Y3350D01*
Y2650D02*
X1207D01*
X1890Y2650D02*
Y2650D01*
Y2650D02*
Y2650D01*
X1876Y2636D02*
X1890Y2650D01*
X6805Y4635D02*
X6856D01*
X6831D01*
Y4788D01*
X6805Y4762D01*
X6395Y5255D02*
Y5306D01*
Y5281D01*
X6242D01*
X6268Y5255D01*
X4985Y76D02*
Y25D01*
Y51D01*
X5138D01*
X5112Y76D01*
X2715D02*
Y25D01*
Y51D01*
X2868D01*
X2842Y76D01*
X1065Y545D02*
X1116D01*
X1091D01*
Y698D01*
X1065Y672D01*
X25Y3775D02*
X76D01*
X51D01*
Y3928D01*
X25Y3902D01*
X85Y4515D02*
X34D01*
X59D01*
Y4362D01*
X85Y4388D01*
X715Y3385D02*
X766D01*
X741D01*
Y3538D01*
X715Y3512D01*
X1308Y4684D02*
Y4734D01*
Y4709D01*
X1155D01*
X1181Y4684D01*
X4102Y5310D02*
Y5260D01*
Y5285D01*
X4254D01*
X4229Y5310D01*
D13*
X2655Y4225D02*
Y4292D01*
Y4258D01*
X2755D01*
X2425Y3895D02*
X2325D01*
Y3945D01*
X2342Y3962D01*
X2375D01*
X2392Y3945D01*
Y3895D01*
Y3928D02*
X2425Y3962D01*
X3195Y945D02*
Y978D01*
Y962D01*
X3095D01*
X3112Y945D01*
X3095Y1095D02*
X3112Y1062D01*
X3145Y1028D01*
X3178D01*
X3195Y1045D01*
Y1078D01*
X3178Y1095D01*
X3162D01*
X3145Y1078D01*
Y1028D01*
X5485Y1002D02*
Y935D01*
X5418Y1002D01*
X5402D01*
X5385Y985D01*
Y952D01*
X5402Y935D01*
X5385Y1102D02*
Y1035D01*
X5435D01*
X5418Y1068D01*
Y1085D01*
X5435Y1102D01*
X5468D01*
X5485Y1085D01*
Y1052D01*
X5468Y1035D01*
X2955Y2195D02*
Y2228D01*
Y2212D01*
X2855D01*
X2872Y2195D01*
X2955Y2328D02*
X2855D01*
X2905Y2278D01*
Y2345D01*
X3945Y2185D02*
Y2218D01*
Y2202D01*
X3845D01*
X3862Y2185D01*
Y2268D02*
X3845Y2285D01*
Y2318D01*
X3862Y2335D01*
X3928D01*
X3945Y2318D01*
Y2285D01*
X3928Y2268D01*
X3862D01*
X5145Y2252D02*
Y2185D01*
X5195D01*
X5178Y2218D01*
Y2235D01*
X5195Y2252D01*
X5228D01*
X5245Y2235D01*
Y2202D01*
X5228Y2185D01*
X575Y4395D02*
X608D01*
X592D01*
Y4295D01*
X575D01*
X608D01*
X725Y4378D02*
X708Y4395D01*
X675D01*
X658Y4378D01*
Y4312D01*
X675Y4295D01*
X708D01*
X725Y4312D01*
X825Y4378D02*
X808Y4395D01*
X775D01*
X758Y4378D01*
Y4362D01*
X775Y4345D01*
X808D01*
X825Y4328D01*
Y4312D01*
X808Y4295D01*
X775D01*
X758Y4312D01*
X858Y4295D02*
Y4395D01*
X908D01*
X925Y4378D01*
Y4345D01*
X908Y4328D01*
X858D01*
X958Y4295D02*
X992D01*
X975D01*
Y4395D01*
X958Y4378D01*
M02*
